<?xml version="1.0" encoding="UTF-8" standalone="no"?>
<svg
   id="svg8"
   version="1.1"
   viewBox="0 0 41.052879 10.081451"
   height="10.081451mm"
   width="41.052879mm"
   sodipodi:docname="craft24_logo.svg"
   inkscape:version="1.3 (0e150ed6c4, 2023-07-21)"
   xmlns:inkscape="http://www.inkscape.org/namespaces/inkscape"
   xmlns:sodipodi="http://sodipodi.sourceforge.net/DTD/sodipodi-0.dtd"
   xmlns="http://www.w3.org/2000/svg"
   xmlns:svg="http://www.w3.org/2000/svg"
   xmlns:rdf="http://www.w3.org/1999/02/22-rdf-syntax-ns#"
   xmlns:cc="http://creativecommons.org/ns#"
   xmlns:dc="http://purl.org/dc/elements/1.1/">
  <sodipodi:namedview
     id="namedview1"
     pagecolor="#ffffff"
     bordercolor="#111111"
     borderopacity="1"
     inkscape:showpageshadow="0"
     inkscape:pageopacity="0"
     inkscape:pagecheckerboard="1"
     inkscape:deskcolor="#d1d1d1"
     inkscape:document-units="mm"
     showgrid="false"
     inkscape:zoom="0.99936506"
     inkscape:cx="-118.07497"
     inkscape:cy="94.059722"
     inkscape:window-width="1280"
     inkscape:window-height="692"
     inkscape:window-x="0"
     inkscape:window-y="0"
     inkscape:window-maximized="1"
     inkscape:current-layer="layer1" />
  <defs
     id="defs2">
    <clipPath
       id="clipPath885"
       clipPathUnits="userSpaceOnUse">
      <path
         id="path887"
         d="m 22.16022,12.08855 2.588516,-5.1138891 1.894038,-11.6167447 69.700537,-0.4419402 24.938119,2.6516485 -6.69226,7.6392795 -2.77792,17.740797 0.37882,2.272857 -1.48365,2.998903 -2.11502,14.805015 32.82996,1.894034 31.0622,-11.364208 L 166.80145,-8.7458269 71.97337,-19.983776 2.525382,-17.584664 -11.237945,-0.03325984 -17.5514,28.756079 7.5761425,40.120287 19.950512,26.104438 21.71828,20.29606 22.428544,15.845061 Z"
         style="fill:none;stroke:#000000;stroke-width:0.99999994px;stroke-linecap:butt;stroke-linejoin:miter;stroke-opacity:1" />
    </clipPath>
  </defs>
  <metadata
     id="metadata5">
    <rdf:RDF>
      <cc:Work
         rdf:about="">
        <dc:format>image/svg+xml</dc:format>
        <dc:type
           rdf:resource="http://purl.org/dc/dcmitype/StillImage" />
        <dc:title />
      </cc:Work>
    </rdf:RDF>
  </metadata>
  <g
     transform="translate(-81.527136,-98.435464)"
     id="layer1">
    <g
       clip-path="url(#clipPath885)"
       transform="matrix(0.26458333,0,0,0.26458333,81.527136,98.436291)"
       id="g879">
      <g
         id="g819">
        <path
           style="fill:#ffffff"
           class="st0"
           d="m 9.6,24.7 v 0 C 7,24.7 4.4,24.6 2.7,23.9 1.8,23.5 1.2,23 0.7,22.3 0.2,21.5 0,20.5 0,19.2 0,18.2 0.1,17 0.4,15.7 0.5,15.4 2,8.4 2.1,8 2.5,6.5 3,5.3 3.6,4.3 4.7,2.6 6.2,1.4 8.2,0.8 9.9,0.2 12.1,0 15.2,0 v 0 c 1.7,0 3,0.1 4.2,0.4 1.3,0.3 2.4,0.7 3.1,1.4 0.5,0.5 0.8,1 1,1.7 0.1,0.3 0.1,0.7 0.1,1.1 0,0.9 -0.2,1.9 -0.3,2.7 0,0.1 0,0.2 -0.1,0.3 v 0 H 17 v 0 c 0,0 0,-0.2 0,-0.3 0,0 0,-0.3 0,-0.6 C 17,6.2 16.8,5.8 16.2,5.4 15.8,5.2 15.3,5.1 14.8,5 14.4,5 13.8,5 13.3,5 12.3,5 11.5,5.1 10.9,5.3 10.4,5.4 10,5.6 9.6,5.9 9,6.2 8.7,6.8 8.4,7.5 8.1,8.2 7.9,9 7.6,10.1 L 6.8,14 c -0.3,1.3 -0.5,2.2 -0.5,3 0,0.5 0.1,0.9 0.2,1.2 0.2,0.5 0.7,0.9 1.3,1.2 0.6,0.2 1.4,0.3 2.5,0.3 0.7,0 1.3,0 1.9,-0.1 1,-0.1 1.6,-0.4 2.1,-0.9 0.6,-0.5 0.9,-1.3 1.2,-2.5 l 0.1,-0.4 h 6 v 0 c 0,0 -0.3,1.6 -0.5,2.3 -0.2,0.7 -0.4,1.2 -0.6,1.7 -0.6,1.3 -1.4,2.3 -2.6,3.1 -1.1,0.8 -2.3,1.3 -3.8,1.5 -1.2,0.2 -2.5,0.2 -3.9,0.2 v 0 c 0,0.1 -0.5,0.1 -0.6,0.1 z"
           id="path817" />
      </g>
      <g
         id="g823">
        <path
           style="fill:#ffffff"
           class="st0"
           d="m 77,24.7 v 0 c -2.6,0 -5.2,-0.1 -6.9,-0.8 -0.9,-0.4 -1.5,-0.9 -2,-1.6 -0.5,-0.8 -0.7,-1.8 -0.7,-3.1 0,-1 0.1,-2.2 0.4,-3.5 C 67.9,15.4 69.4,8.4 69.5,8 69.9,6.5 70.4,5.3 71,4.3 72.1,2.6 73.6,1.4 75.6,0.8 77.3,0.2 79.5,0 82.6,0 v 0 c 1.7,0 3,0.1 4.2,0.4 1.3,0.3 2.4,0.7 3.1,1.4 0.5,0.5 0.8,1 1,1.7 0.1,0.3 0.1,0.7 0.1,1.1 0,0.9 -0.2,1.9 -0.3,2.7 0,0.1 0,0.2 -0.1,0.3 v 0 h -6.1 v 0 c 0,0 0,-0.2 0,-0.3 0,0 0,-0.3 0,-0.6 C 84.5,6.2 84.3,5.8 83.7,5.4 83.3,5.2 82.8,5.1 82.3,5 81.8,5 81.2,5 80.7,5 79.7,5 78.9,5.1 78.3,5.3 77.8,5.4 77.4,5.6 77,5.9 76.5,6.3 76.1,6.8 75.8,7.6 75.5,8.2 75.3,9 75,10.1 L 74.2,14 c -0.3,1.3 -0.5,2.2 -0.5,3 0,0.5 0.1,0.9 0.2,1.2 0.2,0.5 0.7,0.9 1.3,1.2 0.6,0.2 1.4,0.3 2.5,0.3 0.7,0 1.3,0 1.9,-0.1 1,-0.1 1.6,-0.4 2.1,-0.9 0.6,-0.5 0.9,-1.3 1.2,-2.5 L 83,15.8 h 6 v 0 c 0,0 -0.3,1.6 -0.5,2.3 -0.2,0.7 -0.4,1.2 -0.6,1.7 -0.6,1.3 -1.4,2.3 -2.6,3.1 -1.1,0.8 -2.3,1.3 -3.8,1.5 -1.2,0.2 -2.5,0.2 -3.9,0.2 v 0 c 0,0.1 -0.5,0.1 -0.6,0.1 z"
           id="path821" />
      </g>
      <g
         id="g827">
        <path
           style="fill:#ffffff"
           class="st0"
           d="M 63.9,24.5 H 46.4 v 0 l 4.9,-23 c 0.1,-0.4 0.2,-0.7 0.5,-0.9 0.3,-0.2 0.6,-0.3 1.1,-0.3 h 14.8 c 0.4,0 0.6,0.1 0.8,0.2 0.1,0.1 0.2,0.3 0.2,0.5 v 0 c 0,0.1 0,0.2 0,0.3 L 67.9,4.9 H 56.5 l -1,4.8 h 10.7 l -1,4.5 H 54.5 l -1.2,5.7 H 65 Z"
           id="path825" />
      </g>
      <g
         id="g831">
        <path
           style="fill:#ffffff"
           class="st0"
           d="m 95.3,24.5 h -5.8 v 0 L 94.4,1.6 c 0.1,-0.5 0.3,-0.8 0.6,-1 0.2,-0.2 0.5,-0.2 0.8,-0.2 h 3.5 c 0.4,0 0.6,0.1 0.8,0.3 0.1,0.1 0.2,0.3 0.2,0.6 0,0.1 0,0.1 0,0.2 z"
           id="path829" />
      </g>
      <g
         id="g835">
        <path
           style="fill:#ffffff"
           class="st0"
           d="M 111.4,24.5 H 104 v 0 L 98.6,11.9 v 0 L 108,1.6 c 0.6,-0.6 0.9,-1 1.2,-1.1 0.3,-0.2 0.6,-0.3 1.1,-0.3 h 4.7 c 0.2,0 0.4,0.1 0.4,0.1 0,0 0.1,0.1 0.1,0.1 0,0 0,0.1 0,0.1 v 0 0.1 c 0,0.1 -0.1,0.3 -0.3,0.5 l -10,10.9 z"
           id="path833" />
      </g>
      <g
         id="g839">
        <path
           style="fill:#ffffff"
           class="st0"
           d="m 37.6,24.5 v 0 0 l 2,-9.9 H 30 l -2.1,9.9 h -5.8 v 0 C 22.3,23.6 26.9,1.7 27,1.6 27.2,0.9 27.5,0.6 27.7,0.5 27.9,0.4 28.3,0.3 28.8,0.3 H 32 c 0.2,0 0.4,0.1 0.6,0.2 0.1,0.1 0.2,0.2 0.3,0.3 C 33,0.9 33,1 33,1.2 c 0,0.1 0,0.1 0,0.2 0,0.1 -1.6,7.6 -1.8,8.4 h 9.6 C 41.6,6.1 42.5,1.7 42.5,1.7 42.7,1 43,0.7 43.2,0.6 43.4,0.5 43.8,0.4 44.3,0.4 h 3.2 c 0.2,0 0.4,0.1 0.6,0.2 0.1,0.1 0.2,0.2 0.3,0.3 0.1,0.1 0.1,0.2 0.1,0.4 0,0.1 0,0.1 0,0.2 0,0.1 -4.7,22.2 -4.9,23.2 v 0 z"
           id="path837" />
      </g>
      <g
         id="g843">
        <path
           style="fill:#ffffff"
           class="st0"
           d="m 128.6,4.9 c 0.4,0.1 0.8,0.3 1,0.7 v 0 c 0.1,0.2 0.2,0.5 0.2,0.9 v 0 c 0,0.4 -0.1,0.8 -0.2,1.3 v 0 c -0.1,0.6 -0.3,1.2 -0.5,1.6 v 0 c -0.2,0.5 -0.5,0.8 -0.9,1.1 v 0 c -0.8,0.6 -2,1 -4.3,1.5 v 0 c -2.9,0.6 -4.9,1.2 -6.4,1.9 v 0 c -1.4,0.7 -2.2,1.6 -2.9,2.9 v 0 c -0.4,0.9 -0.7,2 -1,3.4 v 0 l -0.8,4.2 h 18.9 l 0.9,-4.2 h -13.2 c 0,0 0.2,-1 0.4,-1.4 v 0 c 0.2,-0.5 0.5,-0.8 0.9,-1.1 v 0 c 0.4,-0.3 0.8,-0.4 1.3,-0.6 v 0 c 1.1,-0.3 2.6,-0.5 4.8,-1.1 v 0 c 2.7,-0.7 4.5,-1.5 5.8,-2.7 v 0 c 1.3,-1.2 2.1,-3 2.7,-5.7 v 0 c 0.2,-1 0.3,-2 0.3,-2.8 v 0 c 0,-1.1 -0.2,-1.9 -0.6,-2.5 v 0 c -0.4,-0.6 -0.9,-1.1 -1.6,-1.4 v 0 C 132,0.2 129.9,0.1 127.5,0.1 v 0 c -3.1,0 -5.6,0.3 -7.4,1.4 v 0 C 118.3,2.6 117,4.6 116.3,8 v 0 l -0.2,0.9 h 5.8 l 0.2,-1 c 0.2,-1 0.4,-1.7 0.8,-2.1 v 0 c 0.4,-0.5 0.9,-0.7 1.7,-0.8 v 0 c 0.5,-0.1 1.1,-0.1 1.8,-0.1 v 0 c 0.1,0 0.2,0 0.3,0 v 0 c 0.9,-0.1 1.4,-0.1 1.9,0 z"
           id="path841" />
      </g>
      <g
         id="g847">
        <path
           style="fill:#ffffff"
           class="st0"
           d="m 144.5,2.6 c -0.7,0.7 -6.3,6.6 -8.6,9 -0.5,0.5 -1,1 -1.2,1.5 -0.2,0.3 -0.4,1.2 -0.5,1.9 -0.2,1.4 -0.4,2.6 -0.5,3.1 0,0.1 0,0.3 0,0.4 0,0.4 0.2,0.7 0.4,0.9 0.2,0.2 0.5,0.3 0.9,0.3 0.3,0 11.1,0 11.1,0 l -1,4.8 5.9,-0.6 0.9,-4.3 h 2.1 l 0.9,-4.3 h -2.1 c 0,0 2.1,-9.8 2.2,-10.2 0.7,-4 -0.9,-5.1 -4.6,-5.1 -1.1,0 -3.3,-0.2 -5.9,2.6 z m 2.4,12.7 h -8.4 l 10,-10.4 h 0.6 z"
           id="path845" />
      </g>
      <g
         id="g851">
        <path
           style="fill:#ffffff"
           class="st0"
           d="m 131.3,38 v 0 c -3.8,0 -7.4,-1 -10.5,-2.9 -3,-1.9 -4.8,-4.1 -5.7,-5.3 l -1.1,2.9 c -0.1,0.3 -0.4,0.4 -0.7,0.4 -0.3,-0.1 -0.5,-0.3 -0.5,-0.6 l -0.1,-5.6 v 0 c 0,-0.2 0.1,-0.3 0.2,-0.4 0.1,-0.1 0.3,-0.2 0.4,-0.2 h 5.7 v 0 c 0.3,0 0.5,0.2 0.6,0.5 0,0 0,0.1 0,0.1 0,0.2 -0.2,0.5 -0.4,0.6 l -2.8,1.1 c 2.4,2.2 7.4,5.7 14.5,5.7 0.6,0 1.2,0 1.8,-0.1 3,-0.3 6,-1 8.7,-2.1 2.4,-1 4.4,-2.2 6,-3.7 l -2.9,-0.8 c -0.3,-0.1 -0.4,-0.3 -0.4,-0.6 0,0 0,0 0,-0.1 0,-0.3 0.3,-0.5 0.5,-0.5 l 5.6,-0.5 c 0,0 0,0 0.1,0 0.1,0 0.3,0.1 0.4,0.1 0.1,0.1 0.2,0.3 0.2,0.4 0.5,5.5 0.5,5.5 0.5,5.5 0,0.3 -0.2,0.5 -0.4,0.6 -0.1,0 -0.1,0 -0.2,0 -0.2,0 -0.4,-0.1 -0.5,-0.3 L 149,29.6 c -1.1,1.5 -3,3.5 -5.9,5.3 -3,1.8 -6.3,2.9 -9.9,3.2 h -0.4 v 0 C 132.4,38 131.8,38 131.3,38 Z"
           id="path849" />
      </g>
    </g>
    <text
       id="text891"
       y="104.80595"
       x="87.211212"
       style="font-style:italic;font-variant:normal;font-weight:bold;font-stretch:normal;font-size:9.05965px;line-height:1.25;font-family:Arial;-inkscape-font-specification:'Arial Bold Italic';letter-spacing:0px;word-spacing:0px;fill:#ffffff;fill-opacity:1;stroke:#ffffff;stroke-width:0.20464;stroke-miterlimit:4;stroke-dasharray:none;stroke-opacity:1"
       xml:space="preserve"><tspan
         style="font-style:italic;font-variant:normal;font-weight:bold;font-stretch:normal;font-family:Arial;-inkscape-font-specification:'Arial Bold Italic';fill:#ffffff;fill-opacity:1;stroke:#ffffff;stroke-width:0.20464;stroke-miterlimit:4;stroke-dasharray:none;stroke-opacity:1"
         y="104.80595"
         x="87.211212"
         id="tspan889">RAFT</tspan></text>
  </g>
  <style
     type="text/css"
     id="style815">&#10;	.st0{fill:#FFFFFF;}&#10;</style>
</svg>
